PathFileType	4	(X/Y/Z)	/Users/mathieubourgeois/Desktop/Analyse/Traitement/Sujet_02/Transformed_Static_Sujet_02_Tpose.trc
DataRate	CameraRate	NumFrames	NumMarkers	Units	OrigDataRate	OrigDataStartFrame	OrigNumFrames
120.000000	120.000000	4	36	mm	120.000000	269	308
Frame#	Time	RFHD			RANE			STRN			LANI			LKNE			T10			RHUM			RWRB			C7			LFWT			LTOE			RTOE			LWRA			LBWT			RBWT			RFWT			LKNI			RKNI			RKNE			LANE			RANI			LHEE			RHEE			LHUM			LRAD			RRAD			RWRA			LWRB			LFHD			LBHD			RBHD			RSHO			LSHO			CLAV			LCAR			RCAR			
		X1	Y1	Z1	X2	Y2	Z2	X3	Y3	Z3	X4	Y4	Z4	X5	Y5	Z5	X6	Y6	Z6	X7	Y7	Z7	X8	Y8	Z8	X9	Y9	Z9	X10	Y10	Z10	X11	Y11	Z11	X12	Y12	Z12	X13	Y13	Z13	X14	Y14	Z14	X15	Y15	Z15	X16	Y16	Z16	X17	Y17	Z17	X18	Y18	Z18	X19	Y19	Z19	X20	Y20	Z20	X21	Y21	Z21	X22	Y22	Z22	X23	Y23	Z23	X24	Y24	Z24	X25	Y25	Z25	X26	Y26	Z26	X27	Y27	Z27	X28	Y28	Z28	X29	Y29	Z29	X30	Y30	Z30	X31	Y31	Z31	X32	Y32	Z32	X33	Y33	Z33	X34	Y34	Z34	X35	Y35	Z35	X36	Y36	Z36	

270	2.241666666666667	-150.2566375732422	1794.25244140625	387.3311462402343	-226.097640991211	101.9781494140625	237.4873046875	-42.42873382568364	1413.0830078125	427.824005126953	76.70993041992185	120.421028137207	269.7066345214844	155.1667785644531	557.5761108398438	246.3052520751953	-46.71114349365237	1381.827270507812	178.8147430419921	-501.0872802734376	1511.11669921875	244.1871337890624	-779.4991455078125	1591.498901367188	270.5652160644529	-48.38889312744143	1621.724243164062	229.774429321289	88.94293975830072	1109.516479492188	408.5924072265624	172.9658508300781	59.02354431152347	457.3281555175781	-252.4898529052735	59.79301452636722	459.5195617675781	712.2867431640625	1497.751831054688	316.2395935058594	14.00812530517575	1144.472045898438	226.4991455078124	-107.2154998779297	1146.86572265625	228.4716491699218	-188.1592864990235	1121.02001953125	405.6866760253906	61.44373703002926	517.2058715820312	279.5477294921874	-132.8361358642578	527.5415649414062	291.1611633300781	-223.3014068603516	580.1544189453125	253.9776611328124	160.1846923828125	101.7212982177735	229.7727508544922	-145.3741455078125	119.8128204345703	278.9647216796875	105.5744705200195	70.49710845947267	177.4181365966797	-161.9618377685547	64.60391235351564	186.6916809082031	430.0889282226562	1466.485473632812	323.6455688476562	438.0153808593749	1521.974731445312	277.1022033691406	-504.4704589843751	1466.585327148438	309.857452392578	-775.116455078125	1533.616943359375	236.6568908691405	706.7171630859375	1559.731323242188	353.4906311035156	-6.814387798309379	1794.0634765625	424.7572937011718	27.77098846435543	1746.601806640625	284.7714538574218	-132.0155029296875	1746.167724609375	259.152862548828	-212.540267944336	1597.261596679688	266.000030517578	121.6091918945312	1615.500854492188	289.7698974609374	-32.25443267822271	1588.23974609375	384.8909606933593	817.9102172851562	1534.178588867188	313.1678771972656	-885.205322265625	1565.282104492188	222.1274261474607	
271	2.25	-150.2263793945313	1794.297485351562	387.4996643066405	-226.0927734375	101.9940643310547	237.4854583740234	-42.44275665283208	1413.08251953125	427.8299255371093	76.72009277343747	120.4204559326172	269.68798828125	155.1767120361328	557.5888671875	246.2860717773438	-46.72750473022463	1381.859985351562	178.889663696289	-501.0997314453126	1511.103759765625	244.2816619873045	-779.5350341796875	1591.411499023438	270.7023010253904	-48.39578628540042	1621.786499023438	229.838394165039	88.93075561523432	1109.520629882812	408.5806274414062	172.9762725830078	59.03704071044925	457.3114624023438	-252.4833374023438	59.79812240600589	459.5214538574218	712.2534790039062	1497.64892578125	316.359375	14.02092647552487	1144.501953125	226.5008697509765	-107.232650756836	1146.8828125	228.4793853759765	-188.1832122802735	1121.023681640625	405.6954040527343	61.45420455932614	517.234375	279.5460510253906	-132.8361053466797	527.5498046875	291.1479492187499	-223.3139038085938	580.1764526367188	253.9589691162109	160.1962738037109	101.7482070922852	229.7718505859375	-145.3708953857422	119.8221588134766	278.9462585449219	105.5906448364258	70.48921966552736	177.4082946777344	-161.9434814453125	64.60639953613283	186.6933898925781	430.0514831542968	1466.419555664062	323.6910400390624	438.0096435546874	1521.936401367188	277.1556701660156	-504.4537353515626	1466.576171875	309.960968017578	-775.107421875	1533.549438476562	236.7991485595701	706.6874389648438	1559.640380859375	353.6117248535156	-6.797446727752738	1794.080200195312	424.9648132324218	27.82247734069821	1746.620483398438	284.8682250976561	-132.0261688232422	1746.249267578125	259.3051452636718	-212.5496215820313	1597.305419921875	266.064971923828	121.5996398925781	1615.524291992188	289.8183288574218	-32.24754333496099	1588.244506835938	384.9230957031249	817.9013061523438	1534.054809570312	313.3953247070312	-885.2559204101562	1565.163818359375	222.3291320800779	
272	2.258333333333333	-150.236068725586	1794.356689453125	387.7059326171874	-226.0850982666016	102.0108947753906	237.4841918945312	-42.443775177002	1413.087036132812	427.8634643554686	76.72326660156247	120.4478302001953	269.6935729980469	155.1701507568359	557.5794677734375	246.294677734375	-46.72635650634768	1381.899658203125	178.9812927246093	-501.1075439453126	1511.10400390625	244.3731689453124	-779.5543823242188	1591.3359375	270.8308410644529	-48.40818786621097	1621.829467773438	229.9094238281249	88.91396331787104	1109.520385742188	408.5776062011718	172.9769287109374	59.04715728759768	457.3141784667969	-252.4814605712891	59.81476211547854	459.5052795410156	712.2501220703125	1497.53076171875	316.4549255371094	13.9941482543945	1144.5078125	226.5118103027343	-107.2395935058594	1146.912353515625	228.4750823974609	-188.2053985595704	1121.019775390625	405.6988220214843	61.43855667114254	517.252197265625	279.5510559082031	-132.8397521972657	527.5584716796875	291.1237487792968	-223.3192596435547	580.1806030273438	253.9595184326171	160.203872680664	101.7560729980469	229.7677612304688	-145.3639373779297	119.8208160400391	278.9450988769531	105.5930252075195	70.4973831176758	177.4105834960938	-161.9462432861328	64.6162567138672	186.6924285888672	430.0251770019531	1466.362548828125	323.7332763671874	438.0040588378906	1521.879028320312	277.2209167480468	-504.4386901855469	1466.553466796875	310.0677185058592	-775.0970458984375	1533.463623046875	236.945358276367	706.6642456054688	1559.540649414062	353.7254943847656	-6.804104804992728	1794.073364257812	425.1498107910155	27.78240203857418	1746.701049804688	285.086456298828	-132.0191955566407	1746.3740234375	259.4915161132811	-212.5578155517578	1597.339111328125	266.132843017578	121.6016845703125	1615.550659179688	289.8771057128905	-32.24575424194341	1588.261596679688	384.9883422851561	817.9019165039062	1533.96142578125	313.5664978027344	-885.2520141601562	1565.044677734375	222.4978637695311	
273	2.266666666666667	-150.2563781738282	1794.053955078125	388.0106506347655	-226.0890502929688	102.0243606567383	237.4843292236328	-42.45534896850591	1413.093872070312	427.9033813476561	76.72997283935544	120.4660186767578	269.6803588867188	155.164321899414	557.5911254882812	246.3044281005859	-46.74013519287112	1381.94287109375	179.0666351318359	-501.0864562988282	1511.085815429688	244.4689025878905	-779.560302734375	1591.254272460938	270.9596252441404	-48.40659332275393	1621.8701171875	229.9781036376952	88.90082550048822	1109.513549804688	408.5855102539062	172.9766998291015	59.04264450073245	457.3219909667969	-252.4760284423829	59.81595993041995	459.5138244628906	712.2420043945312	1497.413452148438	316.5695495605469	14.00278663635251	1144.534790039062	226.5199127197265	-107.2443389892578	1146.9345703125	228.4930572509765	-188.2179412841797	1121.02587890625	405.6925048828124	61.4401931762695	517.244384765625	279.5503845214843	-132.8387451171875	527.5525512695312	291.1000671386718	-223.3103637695313	580.185546875	253.9505310058593	160.1958923339843	101.7577819824219	229.7631988525391	-145.3853454589844	119.8245849609375	278.9641418457031	105.5898742675781	70.50504302978517	177.4090576171875	-161.9354858398438	64.63961029052736	186.7024230957031	429.9894409179687	1466.28076171875	323.7631530761718	437.9958496093749	1521.81005859375	277.2855224609374	-504.4131164550782	1466.537231445312	310.1607055664061	-775.0814819335938	1533.3916015625	237.0733947753905	706.6276245117188	1559.424072265625	353.8444213867188	-6.786083698272757	1794.031372070312	425.3476257324218	27.6113128662109	1747.03515625	284.8416442871093	-132.0261383056641	1746.457275390625	259.6481323242186	-212.572265625	1597.3671875	266.2100830078124	121.5971069335937	1615.565063476562	289.9229736328124	-32.2449455261231	1588.294189453125	385.0607299804686	817.9163818359375	1533.852783203125	313.7331848144531	-885.25830078125	1564.948974609375	222.6576843261717	
